:SAMPLES-PER-SECOND 30
:FRAME-RANGE 1-3549
:FULLY-SPECIFIED
:DEGREES
333
root  31.8039 37.9926 -10.2982 4.93134 -74.2163 -6.30585
RightUpLeg  -23.2312 3.75407 2.15273
RightLeg  31.6507 -4.17889 -3.02068
RightFoot  -6.86202 -0.131685 2.17448
RightToes  1.218e-010 1.26228e-014 -6.01869e-014
Spine  2.26961 -0.702708 3.92112
Spine1  2.58333 -0.472841 0.358119
HEad  -10.2664 2.65435 -3.83737
LeftShoulder1  0.34707 -11.1616 6.64334
LeftArm  -72.4529 -46.3393 -0.613221
LeftForeArm  76.795 -75.8933 -35.3259
LeftHand  0.754724 11.8136 14.1311
RightShoulder  0.430964 5.7629 -4.16625
RightArm  -79.667 53.7712 -3.63862
RightForeArm  118.742 80.305 50.0938
RightHand  1.88958 -15.5248 -21.5295
LeftUpLeg  -16.6125 3.09052 6.03391
LeftLeg  60.3698 -0.194214 0.214841
LeftFoot  -10.3522 0.122378 -6.99262
LeftToes  -1.43952e-010 7.51141e-011 -1.22592e-011
334
root  30.9438 38.2133 -10.3001 4.17133 -74.1502 -4.31995
RightUpLeg  -22.6015 2.68797 2.05457
RightLeg  30.8678 -3.54179 -2.5256
RightFoot  -7.99553 -0.0948227 1.54792
RightToes  1.218e-010 1.26228e-014 -6.01869e-014
Spine  3.12336 -0.529362 2.86005
Spine1  1.58474 -0.432113 0.387401
HEad  -12.5453 2.67314 -3.85188
LeftShoulder1  0.327264 -11.0424 6.7786
LeftArm  -73.9523 -46.1056 -0.412985
LeftForeArm  94.283 -79.5753 -52.0263
LeftHand  0.835662 12.7458 13.6589
RightShoulder  0.44225 5.82777 -4.06146
RightArm  -81.8436 53.4843 -3.64259
RightForeArm  155.212 82.5 87.0573
RightHand  2.03514 -16.2612 -21.5852
LeftUpLeg  -19.4826 3.25729 5.31193
LeftLeg  54.9535 0.654878 1.51088
LeftFoot  -12.2934 0.0193201 -6.52704
LeftToes  -1.43952e-010 7.51141e-011 -1.22592e-011
335
root  30.1746 38.4433 -10.3118 3.77771 -74.0833 -2.34564
RightUpLeg  -22.3316 2.24531 1.86864
RightLeg  29.697 -3.35106 -2.30196
RightFoot  -8.64929 -0.0905076 1.35459
RightToes  1.218e-010 1.26228e-014 -6.01869e-014
Spine  4.11925 -0.323795 1.79623
Spine1  0.22801 -0.332407 0.449682
HEad  -14.6873 2.42485 -4.16897
LeftShoulder1  0.301065 -11.1126 6.99959
LeftArm  -74.8813 -45.9119 -0.0533244
LeftForeArm  111.676 -81.1743 -68.523
LeftHand  0.900618 13.4275 13.4588
RightShoulder  0.437682 5.91124 -4.16679
RightArm  -83.3507 53.4176 -3.45009
RightForeArm  -176.494 81.6573 116.116
RightHand  2.17767 -16.8898 -21.7962
LeftUpLeg  -21.9186 3.13055 4.54264
LeftLeg  47.1145 0.383135 0.872398
LeftFoot  -14.0301 -0.0716564 -6.62664
LeftToes  -1.43952e-010 7.51141e-011 -1.22592e-011
336
root  29.4542 38.6347 -10.2958 4.40344 -74.1961 -1.43213
RightUpLeg  -22.1319 2.5527 1.86954
RightLeg  28.4734 -3.59897 -2.34524
RightFoot  -9.15039 -0.0858144 1.2424
RightToes  1.218e-010 1.26228e-014 -6.01869e-014
Spine  4.66885 -0.0594972 1.43626
Spine1  -0.256906 -0.0410659 0.110146
HEad  -17.7619 1.94959 -4.12182
LeftShoulder1  0.236398 -11.1011 7.5121
LeftArm  -76.114 -46.3511 0.59068
LeftForeArm  119.094 -81.5286 -75.6933
LeftHand  0.922166 13.6879 13.347
RightShoulder  0.428628 5.99028 -4.32323
RightArm  -84.4056 53.4692 -3.19364
RightForeArm  -163.994 80.2203 130.002
RightHand  2.23855 -17.0876 -22.0049
LeftUpLeg  -23.4809 2.75595 4.25839
LeftLeg  38.7802 -2.41587 -1.70102
LeftFoot  -15.3261 -0.239681 -9.50727
LeftToes  -1.43952e-010 7.51141e-011 -1.22592e-011
337
root  28.747 38.7796 -10.2174 4.21991 -74.5756 0.00244141
RightUpLeg  -21.8376 2.78032 1.63832
RightLeg  27.6836 -3.499 -2.21931
RightFoot  -9.89889 -0.0809382 1.09898
RightToes  1.218e-010 1.26228e-014 -6.01869e-014
Spine  4.84266 0.207454 1.31351
Spine1  -0.078423 0.399571 -0.778666
HEad  -20.4628 1.45231 -4.1825
LeftShoulder1  0.167996 -11.2761 8.07241
LeftArm  -77.3389 -47.3695 1.57117
LeftForeArm  108.701 -80.9596 -64.8633
LeftHand  0.922787 13.6335 13.4383
RightShoulder  0.436691 6.44935 -4.46732
RightArm  -84.7955 53.7332 -2.96487
RightForeArm  -160.706 79.6938 133.445
RightHand  2.21225 -17.066 -21.801
LeftUpLeg  -24.1589 1.83859 3.77538
LeftLeg  32.6247 -3.45199 -2.02211
LeftFoot  -15.8297 -0.347972 -11.2639
LeftToes  -1.43952e-010 7.51141e-011 -1.22592e-011
338
root  28.0466 38.8517 -10.0677 4.91071 -75.5376 0.257996
RightUpLeg  -21.554 3.06343 1.63732
RightLeg  27.3747 -2.87836 -1.84571
RightFoot  -10.6965 -0.0754709 0.534572
RightToes  1.218e-010 1.26228e-014 -6.01869e-014
Spine  5.02483 0.584015 1.67585
Spine1  0.0163429 0.922872 -1.44806
HEad  -22.6391 1.33548 -4.17043
LeftShoulder1  0.0617724 -11.1178 8.9021
LeftArm  -78.0367 -48.6868 1.95657
LeftForeArm  92.0923 -78.9263 -46.9987
LeftHand  0.889655 13.4228 13.3159
RightShoulder  0.418396 6.86496 -4.87573
RightArm  -84.2955 54.8941 -2.24778
RightForeArm  -167.615 80.6312 126.733
RightHand  2.2281 -17.072 -21.9367
LeftUpLeg  -24.2158 1.76574 3.4072
LeftLeg  29.4448 -2.71834 -1.31146
LeftFoot  -11.5925 0.0407389 -12.9413
LeftToes  -1.43952e-010 7.51141e-011 -1.22592e-011
339
root  27.3161 38.966 -9.88948 6.44336 -76.6946 -0.44342
RightUpLeg  -20.9427 3.23283 1.99184
RightLeg  26.6007 -2.41476 -1.54107
RightFoot  -10.6516 -0.078195 0.999358
RightToes  1.218e-010 1.26228e-014 -6.01869e-014
Spine  4.8555 0.941154 1.95863
Spine1  0.169056 1.36404 -1.80484
HEad  -24.4858 1.4211 -4.11746
LeftShoulder1  -0.0221838 -11.0068 9.57078
LeftArm  -78.6373 -49.9697 2.37064
LeftForeArm  80.3866 -75.5737 -33.404
LeftHand  0.816301 13.399 12.3438
RightShoulder  0.423491 7.44282 -5.06469
RightArm  -83.1414 56.418 -1.14314
RightForeArm  176.358 82.0317 109.525
RightHand  2.16604 -17.1433 -21.2393
LeftUpLeg  -23.7283 2.26252 2.96138
LeftLeg  28.4464 -1.32507 -0.431669
LeftFoot  -7.2653 0.233684 -5.34112
LeftToes  -1.43952e-010 7.51141e-011 -1.22592e-011
340
root  26.5629 39.2257 -9.75164 6.75549 -77.7882 -0.144104
RightUpLeg  -19.5888 3.87913 2.02535
RightLeg  24.8761 -2.29737 -1.38378
RightFoot  -10.0742 -0.0704464 0.198771
RightToes  1.218e-010 1.26228e-014 -6.01869e-014
Spine  4.74332 1.23366 1.25943
Spine1  0.293944 1.70791 -1.95623
HEad  -26.0757 1.64856 -3.58338
LeftShoulder1  -0.109376 -10.8817 10.2769
LeftArm  -78.706 -51.3499 3.02597
LeftForeArm  71.6429 -71.3384 -24.6883
LeftHand  0.727355 13.1448 11.4573
RightShoulder  0.420338 7.79241 -5.23402
RightArm  -80.9877 57.8376 0.387056
RightForeArm  146.346 82.3548 79.1176
RightHand  2.02385 -16.9773 -20.2029
LeftUpLeg  -22.2295 2.65179 3.05629
LeftLeg  26.8603 -0.978116 -0.193551
LeftFoot  -6.55975 0.28465 -5.8733
LeftToes  -1.43952e-010 7.51141e-011 -1.22592e-011
341
root  25.7877 39.6481 -9.62594 7.63519 -77.8837 -0.105225
RightUpLeg  -17.9952 3.49819 2.05158
RightLeg  22.0001 -1.71527 -0.978118
RightFoot  -8.44501 -0.0407962 -0.649308
RightToes  1.218e-010 1.26228e-014 -6.01869e-014
Spine  4.08045 1.19981 0.758618
Spine1  0.120771 1.60478 -1.73594
HEad  -27.8839 1.42872 -3.06092
LeftShoulder1  -0.245317 -11.0833 11.3475
LeftArm  -79.4794 -53.3468 4.76961
LeftForeArm  63.9589 -64.0453 -16.6297
LeftHand  0.621141 12.3416 11.0051
RightShoulder  0.397518 8.36442 -5.66313
RightArm  -79.4114 59.2687 1.55211
RightForeArm  108.217 78.5371 40.2735
RightHand  1.83874 -16.2871 -19.584
LeftUpLeg  -20.6926 4.71479 3.01781
LeftLeg  24.1617 -2.85018 -1.05945
LeftFoot  -4.6534 0.406436 -6.47482
LeftToes  -1.43952e-010 7.51141e-011 -1.22592e-011
342
root  25.0274 40.24 -9.48176 10.1101 -76.9393 -1.55225
RightUpLeg  -16.6629 2.59394 2.33994
RightLeg  19.2082 -1.13598 -0.652321
RightFoot  -5.20569 -0.0216913 -0.254511
RightToes  1.218e-010 1.26228e-014 -6.01869e-014
Spine  3.06233 0.884145 1.11318
Spine1  -0.20224 1.15633 -1.2927
HEad  -28.6984 0.82093 -2.97667
LeftShoulder1  -0.446799 -11.268 12.9066
LeftArm  -80.8617 -56.1411 7.92791
LeftForeArm  58.3619 -52.2101 -9.96987
LeftHand  0.438694 11.1841 9.56947
RightShoulder  0.312098 8.69285 -6.58376
RightArm  -80.1099 61.5315 0.306327
RightForeArm  86.6866 66.5662 17.1138
RightHand  1.52805 -14.7543 -19.0347
LeftUpLeg  -18.9258 4.29866 3.59352
LeftLeg  20.1556 -3.71448 -1.17952
LeftFoot  -1.32766 0.703087 -7.92701
LeftToes  -1.43952e-010 7.51141e-011 -1.22592e-011
343
root  24.2695 40.7717 -9.33027 13.0052 -76.7538 -3.91827
RightUpLeg  -15.6183 1.48641 2.91181
RightLeg  17.6571 0.232887 -0.166669
RightFoot  -1.72408 -0.155291 1.70558
RightToes  1.218e-010 1.26228e-014 -6.01869e-014
Spine  1.68166 0.955464 2.11359
Spine1  0.122992 1.22491 -1.42166
HEad  -27.2383 0.527225 -2.80756
LeftShoulder1  -0.805079 -11.4319 15.6492
LeftArm  -85.8612 -57.116 13.3292
LeftForeArm  65.048 -43.5124 -6.56159
LeftHand  0.752498 12.3454 13.0817
RightShoulder  0.053688 8.3199 -9.04976
RightArm  -88.8665 64.6182 -4.93355
RightForeArm  82.0265 49.5403 7.81579
RightHand  1.7656 -12.2995 -29.0076
LeftUpLeg  -16.7331 2.78538 4.47501
LeftLeg  16.5215 -2.63047 -0.534261
LeftFoot  1.65284 1.08561 -9.60529
LeftToes  -1.43952e-010 7.51141e-011 -1.22592e-011
344
root  23.5056 41.1857 -9.23432 16.4296 -77.7528 -7.29907
RightUpLeg  -14.7191 1.74058 3.41887
RightLeg  17.2172 1.72931 0.317977
RightFoot  1.16711 -0.322529 3.01416
RightToes  1.218e-010 1.26228e-014 -6.01869e-014
Spine  0.357496 1.42376 3.37787
Spine1  0.137816 1.86829 -2.42997
HEad  -23.0376 0.835926 -1.79397
LeftShoulder1  -1.04445 -9.95851 18.4041
LeftArm  -96.385 -56.3122 20.5999
LeftForeArm  54.2146 -36.6846 -5.21733
LeftHand  0.248059 8.19366 11.358
RightShoulder  -0.189415 7.41828 -11.6293
RightArm  -108.181 65.8883 -15.9414
RightForeArm  82.0162 39.8497 4.97254
RightHand  1.14552 -10.4769 -25.8764
LeftUpLeg  -14.1321 2.57345 5.32874
LeftLeg  13.558 -1.62488 0.0921648
LeftFoot  3.85933 1.47978 -11.2387
LeftToes  -1.43952e-010 7.51141e-011 -1.22592e-011
